<svg width="766" height="494" viewBox="0 0 766 494" fill="none" xmlns="http://www.w3.org/2000/svg">
<path fill-rule="evenodd" clip-rule="evenodd" d="M211.128 -518.857L383 244L-62.1418 -398.951C-150.904 -337.498 -220.251 -265.19 -277.958 -173.921L383 244L-386.37 104.133C-405.678 210.342 -403.579 310.531 -379.857 415.872L383 244L-259.904 689.15C-198.45 777.912 -126.143 847.26 -34.8732 904.967L383 244L243.133 1013.37C349.342 1032.68 449.531 1030.58 554.872 1006.86L383 244L828.15 886.904C916.912 825.45 986.26 753.143 1043.97 661.873L383 244L1152.37 383.867C1171.68 277.658 1169.58 177.469 1145.86 72.128L383 244L1025.9 -201.15C964.45 -289.912 892.143 -359.26 800.873 -416.967L383 244L522.867 -525.37C416.658 -544.678 316.469 -542.579 211.128 -518.857Z" fill="black" fill-opacity="0.1"/>
</svg>
