<svg width="30" height="30" viewBox="0 0 30 30" fill="none" xmlns="http://www.w3.org/2000/svg">
<g filter="url(#filter0_d)">
<path d="M24 15C24 15.8295 23.928 16.5 23.0985 16.5H16.5V23.0985C16.5 23.9265 15.8295 24 15 24C14.1705 24 13.5 23.9265 13.5 23.0985V16.5H6.9015C6.0735 16.5 6 15.8295 6 15C6 14.1705 6.0735 13.5 6.9015 13.5H13.5V6.9015C13.5 6.072 14.1705 6 15 6C15.8295 6 16.5 6.072 16.5 6.9015V13.5H23.0985C23.928 13.5 24 14.1705 24 15Z" fill="#E6EABE"/>
</g>
<defs>
<filter id="filter0_d" x="6" y="6" width="21" height="21" filterUnits="userSpaceOnUse" color-interpolation-filters="sRGB">
<feFlood flood-opacity="0" result="BackgroundImageFix"/>
<feColorMatrix in="SourceAlpha" type="matrix" values="0 0 0 0 0 0 0 0 0 0 0 0 0 0 0 0 0 0 127 0"/>
<feOffset dx="2" dy="2"/>
<feGaussianBlur stdDeviation="0.5"/>
<feColorMatrix type="matrix" values="0 0 0 0 0 0 0 0 0 0 0 0 0 0 0 0 0 0 0.75 0"/>
<feBlend mode="normal" in2="BackgroundImageFix" result="effect1_dropShadow"/>
<feBlend mode="normal" in="SourceGraphic" in2="effect1_dropShadow" result="shape"/>
</filter>
</defs>
</svg>
